<?xml version="1.0" standalone="no"?>
<!DOCTYPE svg PUBLIC "-//W3C//DTD SVG 20010904//EN"
 "http://www.w3.org/TR/2001/REC-SVG-20010904/DTD/svg10.dtd">
<svg version="1.0" xmlns="http://www.w3.org/2000/svg"
 width="400.000000pt" height="400.000000pt" viewBox="0 0 400.000000 400.000000"
 preserveAspectRatio="xMidYMid meet">
<metadata>
Created by potrace 1.16, written by Peter Selinger 2001-2019
</metadata>
<g transform="translate(0.000000,400.000000) scale(0.100000,-0.100000)"
fill="#000000" stroke="none">
<path d="M1867 3855 c-65 -11 -117 -28 -159 -51 -3 -2 -4 5 -1 16 3 12 0 20
-7 20 -17 0 -126 -116 -146 -155 -21 -40 -55 -66 -70 -54 -7 6 -18 1 -30 -13
-13 -14 -14 -19 -4 -14 8 4 5 -1 -7 -10 -13 -9 -23 -26 -23 -38 0 -15 -12 -28
-37 -41 -49 -26 -143 -122 -143 -146 0 -26 -52 -118 -70 -124 -23 -7 -100 -85
-100 -101 0 -17 12 -18 26 -4 14 14 44 2 46 -19 2 -23 -2 -72 -8 -101 -3 -19
-2 -22 6 -10 5 8 10 11 10 6 0 -6 6 -2 13 8 12 16 15 12 26 -38 7 -31 18 -57
24 -58 7 -1 23 -2 36 -2 27 -1 31 -9 56 -131 9 -38 23 -94 32 -123 17 -57 17
-58 -12 -64 -10 -1 -28 -11 -38 -22 -19 -18 -19 -19 -1 -55 10 -20 22 -58 25
-86 l6 -50 1 64 c2 63 2 64 22 46 19 -18 52 -79 65 -122 5 -17 2 -23 -9 -23
-22 0 -20 -12 5 -38 21 -24 18 -45 -6 -35 -19 7 -19 -14 -1 -33 11 -11 16 -11
19 -1 4 9 8 8 16 -3 5 -8 8 -17 6 -21 -3 -3 7 -16 20 -29 14 -13 27 -39 31
-59 10 -63 45 -164 75 -217 16 -28 29 -63 29 -77 0 -42 38 -131 89 -209 58
-89 308 -342 359 -364 35 -14 37 -14 81 15 25 17 77 49 115 72 83 52 195 160
222 214 16 35 19 59 17 180 -2 147 4 185 43 245 12 19 25 46 29 60 7 22 6 23
-9 8 -9 -9 -16 -23 -16 -31 0 -8 -9 -25 -19 -38 l-20 -24 -16 23 c-18 24 -40
29 -49 10 -5 -10 -7 -10 -12 0 -9 20 -27 14 -57 -18 -25 -26 -27 -31 -11 -37
16 -6 16 -7 -2 -20 -17 -12 -17 -13 2 -13 30 0 30 -47 -1 -77 -13 -14 -27 -34
-30 -44 -4 -10 -13 -19 -21 -19 -8 0 -14 -4 -14 -10 0 -20 -59 -40 -118 -39
-33 1 -65 -2 -70 -5 -6 -3 -12 0 -15 6 -3 10 -10 10 -31 -2 -24 -12 -28 -12
-36 0 -8 12 -10 12 -15 -1 -8 -20 -80 -22 -116 -3 -43 22 -89 71 -89 94 0 11
-6 20 -12 20 -9 0 -8 4 2 11 11 8 12 12 3 16 -7 2 -13 11 -13 19 0 8 -5 14
-12 14 -6 0 -8 3 -5 7 4 3 0 15 -9 25 -14 14 -14 20 -4 33 14 17 0 21 -17 4
-9 -9 -14 -5 -20 17 -4 16 -6 36 -5 44 1 10 -1 11 -4 3 -8 -18 -24 -16 -24 2
0 9 -7 18 -15 21 -8 4 -15 13 -15 20 0 8 -15 30 -34 49 -19 18 -32 36 -30 38
3 2 -2 10 -11 17 -8 7 -15 18 -15 24 0 7 -12 23 -26 37 -35 33 -44 52 -56 118
-16 85 -15 175 1 195 13 16 16 15 36 -4 12 -11 39 -23 59 -27 20 -3 36 -9 36
-13 0 -4 20 -15 45 -25 56 -21 115 -13 153 22 l27 24 -25 -8 c-14 -4 -37 -7
-52 -7 -16 1 -28 -2 -28 -6 0 -17 -49 -16 -71 1 l-24 18 38 -3 c21 -2 40 1 43
5 3 5 24 9 47 9 58 0 89 10 83 26 -3 9 4 11 25 9 37 -5 49 21 48 98 -1 41 -3
47 -9 27 -7 -22 -8 -20 -9 14 -1 32 -3 37 -15 27 -12 -10 -20 -9 -40 4 -14 10
-26 13 -26 7 0 -6 -42 -10 -107 -10 -60 1 -115 -2 -124 -6 -13 -6 -16 -1 -16
20 0 14 -7 30 -14 35 -8 5 -9 9 -3 9 6 0 17 -6 24 -14 6 -8 19 -12 27 -9 14 6
14 8 -3 14 -10 4 -13 8 -6 8 7 1 10 6 7 11 -4 6 -1 17 5 25 6 8 9 22 6 33 -5
13 4 28 29 51 37 34 44 51 20 51 -8 0 -15 5 -15 10 0 6 5 10 11 10 14 0 39 25
39 39 0 6 6 11 13 11 7 0 17 8 24 19 13 21 54 35 52 18 -3 -26 2 -34 23 -33
20 1 22 -3 19 -41 -1 -26 2 -43 8 -43 6 0 11 5 11 10 0 6 7 10 15 10 17 0 20
16 6 24 -5 4 -12 0 -14 -6 -4 -8 -6 -9 -6 -2 -1 16 26 37 39 29 5 -3 10 -15
10 -26 0 -13 7 -19 24 -19 43 0 76 -18 76 -41 0 -14 5 -19 15 -16 8 4 22 -4
34 -18 10 -14 25 -25 34 -25 21 0 64 -46 69 -74 4 -21 0 -25 -29 -31 -18 -3
-37 -4 -42 -1 -5 3 -15 -2 -22 -12 -13 -16 -12 -16 6 -2 20 14 20 14 1 -7 -10
-13 -22 -20 -26 -18 -4 3 -10 -6 -12 -20 -3 -14 0 -26 8 -29 7 -3 18 -24 25
-48 16 -56 17 -57 41 -28 13 16 18 19 14 8 -3 -10 -1 -18 4 -18 6 0 10 -6 10
-14 0 -10 10 -12 48 -5 26 5 67 10 92 12 25 1 50 6 56 9 6 4 31 10 55 14 55 8
70 20 63 49 -5 20 -1 24 27 30 22 5 34 4 37 -4 2 -6 8 -9 12 -6 5 3 15 -4 23
-16 10 -14 16 -16 19 -7 3 7 10 -2 16 -20 6 -18 7 -32 2 -32 -5 0 -9 -40 -9
-88 0 -48 -4 -99 -10 -113 -22 -55 -24 -66 -23 -102 1 -21 7 -43 12 -50 6 -7
18 -21 26 -32 14 -19 15 -18 11 13 -2 17 0 32 5 32 5 0 6 5 3 10 -4 6 -10 8
-15 5 -5 -3 -11 -1 -15 5 -4 6 5 10 19 10 23 0 26 4 26 35 0 28 5 37 30 50 36
19 39 29 5 21 -18 -5 -25 -2 -25 9 0 8 4 15 8 15 5 0 14 11 20 25 14 31 9 32
-17 3 l-20 -21 0 77 c0 69 2 76 14 59 14 -17 14 -17 16 7 2 14 3 32 4 40 1 18
27 60 37 60 4 0 10 -10 14 -22 7 -22 8 -22 20 7 28 65 4 121 -27 63 -7 -13
-15 -25 -18 -28 -3 -3 -12 -17 -20 -32 -8 -15 -21 -30 -29 -33 -21 -8 -8 49
18 77 25 27 25 34 -1 41 -14 4 -18 10 -13 18 4 7 10 65 13 128 5 97 9 116 21
114 9 -2 20 9 26 25 16 43 5 292 -15 331 -5 9 -14 40 -21 69 -8 34 -26 69 -51
99 -21 26 -55 78 -74 115 -20 37 -48 76 -63 87 -15 11 -38 32 -52 46 -14 13
-45 29 -70 34 -25 6 -63 14 -85 20 -135 34 -237 38 -368 16z m583 -2182 c0 -2
-5 -1 -10 2 -6 4 -6 -3 1 -18 9 -19 7 -31 -5 -55 -46 -89 -146 -200 -168 -186
-7 5 -8 3 -3 -6 6 -10 4 -12 -9 -7 -9 4 -15 3 -12 -2 3 -4 -6 -13 -19 -19 -14
-7 -25 -16 -25 -21 0 -6 -7 -7 -17 -4 -10 4 -14 2 -10 -4 4 -6 0 -13 -8 -16
-10 -4 -12 -1 -9 11 2 9 -1 7 -7 -6 -7 -13 -18 -21 -26 -18 -8 3 -11 1 -8 -4
3 -6 -1 -10 -9 -10 -8 0 -18 -5 -22 -12 -5 -7 -3 -8 6 -3 9 5 11 4 6 -3 -22
-37 -78 2 -239 165 -133 134 -159 169 -151 198 4 15 3 16 -4 6 -6 -8 -12 -9
-16 -3 -3 6 -2 13 3 17 14 8 51 -17 51 -35 0 -13 1 -13 10 0 5 8 10 10 10 4 0
-6 22 -26 50 -45 27 -19 50 -37 50 -41 0 -5 9 -8 20 -8 11 0 25 -9 32 -20 8
-12 24 -20 40 -20 14 0 28 -5 30 -12 2 -6 13 -13 24 -15 41 -8 147 -3 160 7 7
7 22 9 34 5 11 -3 20 -2 20 3 0 5 10 14 23 21 17 9 17 10 2 5 -57 -18 -59 -15
-14 27 25 24 55 60 67 79 12 19 22 31 22 26 0 -5 7 -3 15 4 8 7 12 16 9 21 -3
5 4 9 15 9 12 0 26 8 33 19 11 18 12 17 35 -7 12 -14 23 -27 23 -29z"/>
<path d="M1846 2329 c-16 -82 1 -129 47 -129 22 -1 22 -1 -2 -20 -13 -11 -19
-20 -15 -20 20 -1 -32 -30 -53 -30 -13 0 -23 -5 -23 -12 0 -6 -3 -8 -7 -5 -3
4 -17 0 -30 -8 -13 -9 -23 -12 -23 -8 -1 19 -25 -35 -26 -59 -2 -28 0 -27 41
10 13 11 16 9 25 -12 8 -21 16 -26 46 -26 23 0 42 -6 50 -17 12 -17 13 -17 14
3 0 17 5 20 25 16 15 -2 25 0 25 7 0 6 -4 11 -10 11 -5 0 -10 5 -10 10 0 6 7
10 15 10 8 0 15 -7 15 -15 0 -22 17 -18 23 5 6 23 33 18 54 -9 11 -14 13 -13
19 7 4 15 14 22 30 22 26 0 32 -14 12 -24 -20 -10 132 5 158 14 16 6 22 15 18
25 -3 8 -2 15 4 15 6 0 12 -6 15 -12 8 -24 30 8 24 35 -5 16 -18 27 -42 34
-19 6 -37 7 -40 2 -3 -4 -12 -6 -19 -3 -8 3 -17 1 -21 -5 -3 -6 2 -11 13 -11
10 0 27 -8 36 -19 16 -17 16 -19 0 -25 -9 -3 -43 1 -75 10 -39 11 -71 14 -96
9 -21 -4 -59 -6 -85 -6 -33 1 -62 -6 -97 -24 -51 -25 -91 -33 -91 -16 0 5 9
11 20 14 11 3 20 12 20 21 0 10 6 13 15 10 9 -4 15 0 15 10 0 9 6 13 14 10 8
-3 24 4 35 15 12 12 24 21 29 21 4 0 15 7 25 15 9 8 22 15 28 15 5 0 7 5 3 12
-4 7 -3 8 5 4 6 -4 28 3 47 15 31 19 40 20 56 10 16 -10 23 -9 39 5 10 9 19
24 18 33 0 9 -3 11 -5 5 -3 -7 -21 -10 -50 -6 -33 3 -49 0 -64 -13 -15 -13
-28 -16 -62 -10 -24 3 -62 6 -85 6 -42 0 -43 1 -43 32 0 18 5 38 12 45 8 8 9
15 1 23 -7 7 -12 1 -17 -22z"/>
<path d="M1520 1782 c-54 -57 -167 -117 -300 -160 -112 -36 -424 -117 -630
-162 -183 -40 -314 -77 -363 -102 -67 -34 -92 -95 -132 -320 -13 -76 -33 -176
-45 -223 -23 -98 -25 -153 -9 -274 12 -97 -2 -251 -26 -288 -11 -16 -15 -54
-15 -138 l0 -115 860 0 c473 0 860 4 860 8 0 5 -7 138 -15 297 -20 373 -57
722 -121 1138 -26 166 -30 325 -10 370 14 30 -7 18 -54 -31z"/>
<path d="M2513 1587 c-1 -53 -10 -116 -27 -177 -14 -52 -44 -171 -66 -265 -22
-93 -45 -182 -51 -197 -6 -15 -12 -42 -13 -60 -2 -18 -15 -105 -30 -193 -43
-252 -65 -391 -81 -515 -8 -63 -18 -130 -21 -147 l-5 -33 761 0 760 0 0 29 c0
16 -9 80 -20 142 -17 99 -18 126 -9 208 7 54 9 136 5 195 -4 55 -10 173 -14
261 -10 224 -17 235 -205 349 -70 42 -172 90 -290 137 -183 72 -552 254 -640
316 -26 18 -48 33 -50 33 -1 0 -3 -37 -4 -83z"/>
<path d="M1895 1178 c-45 -46 -107 -119 -140 -163 -32 -44 -63 -83 -69 -87 -7
-5 -5 -8 5 -8 9 0 20 10 26 23 12 26 103 137 112 137 10 0 70 -123 77 -158 4
-22 -4 -56 -30 -124 -19 -51 -40 -113 -45 -138 -12 -54 -38 -345 -47 -527 l-6
-133 165 0 165 0 7 76 c14 143 -1 446 -29 613 -15 85 -24 163 -20 173 6 20 98
147 108 151 4 1 17 -16 31 -38 13 -22 25 -37 25 -33 0 14 -75 137 -125 204
l-53 71 -51 -5 c-56 -5 -65 6 -28 31 12 9 18 16 12 16 -5 1 -46 -36 -90 -81z
m105 -330 c0 -7 -14 -29 -30 -48 -25 -28 -30 -41 -25 -67 3 -17 1 -34 -5 -38
-5 -3 -10 -14 -10 -23 0 -10 -9 -35 -20 -56 -10 -22 -17 -42 -15 -46 3 -4 -4
-10 -14 -13 -14 -3 -22 -19 -30 -58 -10 -51 -10 -49 -5 31 3 47 7 103 9 125 4
43 21 95 31 95 3 0 4 -7 0 -15 -3 -8 0 -14 6 -12 22 4 19 -29 -6 -56 -17 -18
-21 -27 -11 -27 19 0 42 37 49 80 4 23 3 28 -2 16 -6 -13 -11 -16 -15 -9 -11
17 14 65 30 59 17 -7 17 11 1 17 -10 4 -9 8 2 16 8 6 11 11 6 11 -5 0 -3 7 4
15 15 18 50 20 50 3z"/>
</g>
</svg>
